<?xml version="1.0" encoding="UTF-8" standalone="no"?> <svg width="64" height="64" viewBox="0 0 64 64" fill="none" xmlns="http://www.w3.org/2000/svg">
<path d="M37.9999 10C36.2966 10.0011 34.6521 10.6232 33.3745 11.7498C32.097 12.8764 31.274 14.4302 31.0599 16.12C26.5799 17.07 27.3699 24.12 31.9999 24C36.5399 24.12 37.4399 17.25 33.0799 16.17C33.2758 15.006 33.8773 13.9489 34.7777 13.1857C35.6781 12.4225 36.8196 12.0025 37.9999 12C38.2651 12 38.5195 11.8946 38.707 11.7071C38.8946 11.5196 38.9999 11.2652 38.9999 11C38.9999 10.7348 38.8946 10.4804 38.707 10.2929C38.5195 10.1054 38.2651 10 37.9999 10Z" fill="url(#paint0_linear)"/>
<path d="M50.9999 10C49.2966 10.0011 47.6521 10.6232 46.3745 11.7498C45.097 12.8764 44.274 14.4302 44.0599 16.12C39.5799 17.07 40.3699 24.12 44.9999 24C49.5399 24.12 50.4399 17.25 46.0799 16.17C46.2758 15.006 46.8773 13.9489 47.7777 13.1857C48.6781 12.4225 49.8196 12.0025 50.9999 12C51.2651 12 51.5195 11.8946 51.707 11.7071C51.8945 11.5196 51.9999 11.2652 51.9999 11C51.9999 10.7348 51.8945 10.4804 51.707 10.2929C51.5195 10.1054 51.2651 10 50.9999 10Z" fill="url(#paint1_linear)"/>
<path d="M23.9999 10C22.2966 10.0011 20.6521 10.6232 19.3745 11.7498C18.097 12.8764 17.274 14.4302 17.0599 16.12C12.5799 17.07 13.3699 24.12 17.9999 24C22.5399 24.12 23.4399 17.25 19.0799 16.17C19.2758 15.006 19.8773 13.9489 20.7777 13.1857C21.6781 12.4225 22.8196 12.0025 23.9999 12C24.2651 12 24.5195 11.8946 24.707 11.7071C24.8946 11.5196 24.9999 11.2652 24.9999 11C24.9999 10.7348 24.8946 10.4804 24.707 10.2929C24.5195 10.1054 24.2651 10 23.9999 10Z" fill="url(#paint2_linear)"/>
<path d="M50.7499 23H13.2499C5.4699 23.31 7.0799 31.73 6.9999 37.06C7.8899 39.18 10.7499 36.62 11.5399 35.68C11.8476 35.1947 12.2729 34.795 12.7764 34.518C13.2799 34.2411 13.8453 34.0958 14.4199 34.0958C14.9945 34.0958 15.5599 34.2411 16.0634 34.518C16.5669 34.795 16.9922 35.1947 17.2999 35.68C17.7982 36.3639 18.4511 36.9203 19.2053 37.3039C19.9595 37.6876 20.7937 37.8875 21.6399 37.8875C22.4861 37.8875 23.3203 37.6876 24.0745 37.3039C24.8287 36.9203 25.4816 36.3639 25.9799 35.68C26.2876 35.1947 26.7129 34.795 27.2164 34.518C27.7199 34.2411 28.2853 34.0958 28.8599 34.0958C29.4345 34.0958 29.9999 34.2411 30.5034 34.518C31.0069 34.795 31.4322 35.1947 31.7399 35.68C32.2382 36.3639 32.8911 36.9203 33.6453 37.3039C34.3995 37.6876 35.2337 37.8875 36.0799 37.8875C36.9261 37.8875 37.7603 37.6876 38.5145 37.3039C39.2687 36.9203 39.9216 36.3639 40.4199 35.68C44.7199 30.76 45.9399 38.05 50.5199 37.95C52.8499 37.95 53.9799 36.65 54.9799 35.57C55.5299 34.66 56.8799 34.51 56.9799 33.45C57.3399 28.6 56.8299 23.27 50.7499 23Z" fill="url(#paint3_linear)"/>
<path d="M56.8899 33C54.7399 30.87 53.0499 36.44 50.5399 36C47.2999 35.78 47.2199 32 43.3199 32.1C39.4199 31.98 39.3199 35.78 36.0999 36C32.8499 35.78 32.7799 32 28.8799 32.1C24.9799 31.98 24.8799 35.78 21.6599 36C18.4099 35.78 18.3399 32 14.4399 32.1C11.4399 32.1 10.6899 34.1 8.99989 35.41C8.39989 36.01 6.99989 35.81 6.99989 36.93V45.93C6.99747 46.0779 7.02791 46.2245 7.08901 46.3593C7.15011 46.494 7.24036 46.6135 7.35323 46.7092C7.46611 46.8049 7.59881 46.8743 7.74176 46.9125C7.88471 46.9506 8.03435 46.9566 8.17989 46.93C11.0499 46.61 11.6399 43.19 14.4399 43.12C15.8099 43.12 16.4399 43.84 17.3199 44.75C17.8182 45.4338 18.4711 45.9903 19.2253 46.3739C19.9795 46.7575 20.8137 46.9575 21.6599 46.9575C22.5061 46.9575 23.3403 46.7575 24.0945 46.3739C24.8487 45.9903 25.5016 45.4338 25.9999 44.75C26.3076 44.2646 26.7329 43.8649 27.2364 43.588C27.7399 43.311 28.3052 43.1658 28.8799 43.1658C29.4545 43.1658 30.0199 43.311 30.5234 43.588C31.0269 43.8649 31.4522 44.2646 31.7599 44.75C32.2582 45.4338 32.9111 45.9903 33.6653 46.3739C34.4195 46.7575 35.2537 46.9575 36.0999 46.9575C36.9461 46.9575 37.7803 46.7575 38.5345 46.3739C39.2887 45.9903 39.9416 45.4338 40.4399 44.75C41.2899 43.84 41.9499 43.12 43.3199 43.12C44.6899 43.12 45.3199 43.84 46.1999 44.75C46.7004 45.434 47.3551 45.9903 48.1109 46.3739C48.8667 46.7574 49.7023 46.9573 50.5499 46.9573C51.3974 46.9573 52.2331 46.7574 52.9889 46.3739C53.7447 45.9903 54.3994 45.434 54.8999 44.75C55.4499 43.75 56.8999 43.61 56.9999 42.52V33.52C57.008 33.3401 56.9701 33.1611 56.8899 33V33Z" fill="url(#paint4_linear)"/>
<path d="M56.8899 42.0001C55.8899 40.4801 54.1799 42.5801 53.4299 43.3201C53.121 43.8053 52.6946 44.2048 52.1904 44.4816C51.6861 44.7583 51.1201 44.9034 50.5449 44.9034C49.9696 44.9034 49.4037 44.7583 48.8994 44.4816C48.3951 44.2048 47.9688 43.8053 47.6599 43.3201C47.1616 42.6362 46.5087 42.0798 45.7545 41.6961C45.0003 41.3125 44.1661 41.1125 43.3199 41.1125C42.4737 41.1125 41.6395 41.3125 40.8853 41.6961C40.1311 42.0798 39.4782 42.6362 38.9799 43.3201C38.6722 43.8054 38.2469 44.2051 37.7434 44.482C37.2399 44.759 36.6745 44.9042 36.0999 44.9042C35.5252 44.9042 34.9599 44.759 34.4564 44.482C33.9529 44.2051 33.5276 43.8054 33.2199 43.3201C32.7216 42.6362 32.0687 42.0798 31.3145 41.6961C30.5603 41.3125 29.7261 41.1125 28.8799 41.1125C28.0337 41.1125 27.1995 41.3125 26.4453 41.6961C25.6911 42.0798 25.0382 42.6362 24.5399 43.3201C23.6899 44.2301 22.9999 45.0001 21.6599 45.0001C20.3199 45.0001 19.6599 44.2801 18.7799 43.3701C18.2805 42.6861 17.6267 42.1297 16.8717 41.7462C16.1167 41.3626 15.2818 41.1627 14.4349 41.1627C13.588 41.1627 12.7531 41.3626 11.9981 41.7462C11.2431 42.1297 10.5893 42.6861 10.0899 43.3701C9.5286 44.1227 8.72816 44.6622 7.81989 44.9001C7.58693 44.9427 7.37665 45.0666 7.22649 45.2497C7.07633 45.4328 6.99603 45.6633 6.99989 45.9001V53.0001C6.99989 53.2653 7.10525 53.5196 7.29278 53.7072C7.48032 53.8947 7.73467 54.0001 7.99989 54.0001H55.9999C56.2651 54.0001 56.5195 53.8947 56.707 53.7072C56.8945 53.5196 56.9999 53.2653 56.9999 53.0001V42.4501C56.9968 42.2938 56.9593 42.1401 56.8899 42.0001V42.0001Z" fill="url(#paint5_linear)"/>
<path d="M60 54H4C3.73478 54 3.48043 53.8946 3.29289 53.7071C3.10536 53.5196 3 53.2652 3 53C3 52.7348 3.10536 52.4804 3.29289 52.2929C3.48043 52.1054 3.73478 52 4 52H60C60.2652 52 60.5196 52.1054 60.7071 52.2929C60.8946 52.4804 61 52.7348 61 53C61 53.2652 60.8946 53.5196 60.7071 53.7071C60.5196 53.8946 60.2652 54 60 54Z" fill="url(#paint6_linear)"/>
<defs>
<linearGradient id="paint0_linear" x1="28.0799" y1="17" x2="38.9699" y2="17" gradientUnits="userSpaceOnUse">
<stop stop-color="#9F002B"/>
<stop offset="0.69" stop-color="#6A001F"/>
<stop offset="1" stop-color="#51001A"/>
</linearGradient>
<linearGradient id="paint1_linear" x1="489.549" y1="248.026" x2="608.434" y2="248.026" gradientUnits="userSpaceOnUse">
<stop stop-color="#9F002B"/>
<stop offset="0.69" stop-color="#6A001F"/>
<stop offset="1" stop-color="#51001A"/>
</linearGradient>
<linearGradient id="paint2_linear" x1="167.793" y1="248.026" x2="286.678" y2="248.026" gradientUnits="userSpaceOnUse">
<stop stop-color="#9F002B"/>
<stop offset="0.69" stop-color="#6A001F"/>
<stop offset="1" stop-color="#51001A"/>
</linearGradient>
<linearGradient id="paint3_linear" x1="6.9199" y1="30.48" x2="57.0799" y2="30.48" gradientUnits="userSpaceOnUse">
<stop stop-color="#703D04"/>
<stop offset="0.38" stop-color="#583003"/>
<stop offset="1" stop-color="#2A1702"/>
</linearGradient>
<linearGradient id="paint4_linear" x1="6.99989" y1="39.47" x2="56.9999" y2="39.47" gradientUnits="userSpaceOnUse">
<stop stop-color="#FDFBF7"/>
<stop offset="0.35" stop-color="#F5F0DF"/>
<stop offset="1" stop-color="#E3D7A9"/>
</linearGradient>
<linearGradient id="paint5_linear" x1="6.99989" y1="47.5601" x2="56.9999" y2="47.5601" gradientUnits="userSpaceOnUse">
<stop stop-color="#AC9430"/>
<stop offset="0.36" stop-color="#9F7C21"/>
<stop offset="1" stop-color="#834800"/>
</linearGradient>
<linearGradient id="paint6_linear" x1="3" y1="53" x2="60.97" y2="53" gradientUnits="userSpaceOnUse">
<stop stop-color="#C6C6C6"/>
<stop offset="0.42" stop-color="#AEAEAE"/>
<stop offset="1" stop-color="#878787"/>
</linearGradient>
</defs>
</svg>
